<svg xmlns="http://www.w3.org/2000/svg" width="20" height="19.964" viewBox="0 0 20 19.964">
  <g id="Menu_ICon" data-name="Menu ICon" transform="translate(-0.105 0)">
    <g id="Union" transform="translate(0.105)" fill="#fff">
      <path d="M 17 19.46391296386719 L 3 19.46391296386719 C 1.621500015258789 19.46391296386719 0.5 18.3424129486084 0.5 16.96391296386719 L 0.5 9.300003051757812 C 0.5 8.592423439025879 0.8016499876976013 7.91511344909668 1.327589988708496 7.441763401031494 L 8.327580451965332 1.14176332950592 C 8.787382125854492 0.7279386520385742 9.381360054016113 0.5000033378601074 9.999958992004395 0.5000033378601074 C 9.999997138977051 0.5000033378601074 9.999961853027344 0.5000033378601074 10 0.5000033378601074 C 10.61863994598389 0.5000033378601074 11.21257972717285 0.7279133796691895 11.6724100112915 1.14176332950592 L 18.67240905761719 7.441763401031494 C 19.19835090637207 7.91511344909668 19.5 8.592423439025879 19.5 9.300003051757812 L 19.5 16.96391296386719 C 19.5 18.3424129486084 18.37849998474121 19.46391296386719 17 19.46391296386719 Z" stroke="none"/>
      <path d="M 17 19.96391296386719 L 3 19.96391296386719 C 1.343150019645691 19.96391296386719 0 18.62076377868652 0 16.96391296386719 L 0 9.300003051757812 C 0 8.449542999267578 0.3609699904918671 7.63904333114624 0.9931100010871887 7.070113182067871 L 7.993100166320801 0.7701133489608765 C 9.134018898010254 -0.2567065954208374 10.86597919464111 -0.2567065954208374 12.00689029693604 0.7701133489608765 L 19.00688934326172 7.070113182067871 C 19.63903045654297 7.63904333114624 20 8.449542999267578 20 9.300003051757812 L 20 16.96391296386719 C 20 18.62076377868652 18.65685081481934 19.96391296386719 17 19.96391296386719 Z M 9 9.963912963867188 L 11 9.963912963867188 C 12.65684986114502 9.963912963867188 14 11.30706310272217 14 12.96391296386719 L 14 18.46391296386719 L 17 18.46391296386719 C 17.82843017578125 18.46391296386719 18.5 17.79234313964844 18.5 16.96391296386719 L 18.5 9.300003051757812 C 18.5 8.874773025512695 18.31952095031738 8.469523429870605 18.00345039367676 8.185053825378418 L 11.00345039367676 1.885063409805298 C 10.4329891204834 1.371643304824829 9.567010879516602 1.371643304824829 8.996549606323242 1.885063409805298 L 1.996549963951111 8.185053825378418 C 1.680480003356934 8.469523429870605 1.5 8.874773025512695 1.5 9.300003051757812 L 1.5 16.96391296386719 C 1.5 17.79234313964844 2.171570062637329 18.46391296386719 3 18.46391296386719 L 6 18.46391296386719 L 6 12.96391296386719 C 6 11.30706310272217 7.34315013885498 9.963912963867188 9 9.963912963867188 Z M 9 11.46391296386719 C 8.17156982421875 11.46391296386719 7.5 12.13548374176025 7.5 12.96391296386719 L 7.5 18.46391296386719 L 12.5 18.46391296386719 L 12.5 12.96391296386719 C 12.5 12.13548374176025 11.82843017578125 11.46391296386719 11 11.46391296386719 L 9 11.46391296386719 Z" stroke="none" fill="#838383"/>
    </g>
  </g>
</svg>
