<svg xmlns="http://www.w3.org/2000/svg" width="18" height="18" viewBox="0 0 18 18">
  <g id="Menu_ICon" data-name="Menu ICon" transform="translate(-1.105 -236.334)">
    <g id="Rectangle_241_Stroke_" data-name="Rectangle 241 (Stroke)" transform="translate(1.105 236.334)" fill="none">
      <path d="M5,1.5H3A1.5,1.5,0,0,0,1.5,3V5A1.5,1.5,0,0,0,3,6.5H5A1.5,1.5,0,0,0,6.5,5V3A1.5,1.5,0,0,0,5,1.5ZM3,0A3,3,0,0,0,0,3V5A3,3,0,0,0,3,8H5A3,3,0,0,0,8,5V3A3,3,0,0,0,5,0Z" stroke="none"/>
      <path d="M 3 0 L 5 0 C 6.65684986114502 0 8 1.34315013885498 8 3 L 8 5 C 8 6.65684986114502 6.65684986114502 8 5 8 L 3 8 C 1.34315013885498 8 0 6.65684986114502 0 5 L 0 3 C 0 1.34315013885498 1.34315013885498 0 3 0 Z M 5 6.5 C 5.82843017578125 6.5 6.5 5.82843017578125 6.5 5 L 6.5 3 C 6.5 2.17156982421875 5.82843017578125 1.5 5 1.5 L 3 1.5 C 2.17156982421875 1.5 1.5 2.17156982421875 1.5 3 L 1.5 5 C 1.5 5.82843017578125 2.17156982421875 6.5 3 6.5 L 5 6.5 Z" stroke="none" fill="#838383"/>
    </g>
    <g id="Rectangle_243_Stroke_" data-name="Rectangle 243 (Stroke)" transform="translate(1.105 246.334)" fill="none">
      <path d="M5,1.5H3A1.5,1.5,0,0,0,1.5,3V5A1.5,1.5,0,0,0,3,6.5H5A1.5,1.5,0,0,0,6.5,5V3A1.5,1.5,0,0,0,5,1.5ZM3,0A3,3,0,0,0,0,3V5A3,3,0,0,0,3,8H5A3,3,0,0,0,8,5V3A3,3,0,0,0,5,0Z" stroke="none"/>
      <path d="M 3 0 L 5 0 C 6.65684986114502 0 8 1.34315013885498 8 3 L 8 5 C 8 6.65684986114502 6.65684986114502 8 5 8 L 3 8 C 1.34315013885498 8 0 6.65684986114502 0 5 L 0 3 C 0 1.34315013885498 1.34315013885498 0 3 0 Z M 5 6.5 C 5.82843017578125 6.5 6.5 5.82843017578125 6.5 5 L 6.5 3 C 6.5 2.17156982421875 5.82843017578125 1.5 5 1.5 L 3 1.5 C 2.17156982421875 1.5 1.5 2.17156982421875 1.5 3 L 1.5 5 C 1.5 5.82843017578125 2.17156982421875 6.5 3 6.5 L 5 6.5 Z" stroke="none" fill="#838383"/>
    </g>
    <g id="Rectangle_242_Stroke_" data-name="Rectangle 242 (Stroke)" transform="translate(11.105 236.334)" fill="none">
      <path d="M5,1.5H3A1.5,1.5,0,0,0,1.5,3V5A1.5,1.5,0,0,0,3,6.5H5A1.5,1.5,0,0,0,6.5,5V3A1.5,1.5,0,0,0,5,1.5ZM3,0A3,3,0,0,0,0,3V5A3,3,0,0,0,3,8H5A3,3,0,0,0,8,5V3A3,3,0,0,0,5,0Z" stroke="none"/>
      <path d="M 3 0 L 5 0 C 6.65684986114502 0 8 1.34315013885498 8 3 L 8 5 C 8 6.65684986114502 6.65684986114502 8 5 8 L 3 8 C 1.34315013885498 8 0 6.65684986114502 0 5 L 0 3 C 0 1.34315013885498 1.34315013885498 0 3 0 Z M 5 6.5 C 5.82843017578125 6.5 6.5 5.82843017578125 6.5 5 L 6.5 3 C 6.5 2.17156982421875 5.82843017578125 1.5 5 1.5 L 3 1.5 C 2.17156982421875 1.5 1.5 2.17156982421875 1.5 3 L 1.5 5 C 1.5 5.82843017578125 2.17156982421875 6.5 3 6.5 L 5 6.5 Z" stroke="none" fill="#838383"/>
    </g>
    <g id="Rectangle_244_Stroke_" data-name="Rectangle 244 (Stroke)" transform="translate(11.105 246.334)" fill="none">
      <path d="M5,1.5H3A1.5,1.5,0,0,0,1.5,3V5A1.5,1.5,0,0,0,3,6.5H5A1.5,1.5,0,0,0,6.5,5V3A1.5,1.5,0,0,0,5,1.5ZM3,0A3,3,0,0,0,0,3V5A3,3,0,0,0,3,8H5A3,3,0,0,0,8,5V3A3,3,0,0,0,5,0Z" stroke="none"/>
      <path d="M 3 0 L 5 0 C 6.65684986114502 0 8 1.34315013885498 8 3 L 8 5 C 8 6.65684986114502 6.65684986114502 8 5 8 L 3 8 C 1.34315013885498 8 0 6.65684986114502 0 5 L 0 3 C 0 1.34315013885498 1.34315013885498 0 3 0 Z M 5 6.5 C 5.82843017578125 6.5 6.5 5.82843017578125 6.5 5 L 6.5 3 C 6.5 2.17156982421875 5.82843017578125 1.5 5 1.5 L 3 1.5 C 2.17156982421875 1.5 1.5 2.17156982421875 1.5 3 L 1.5 5 C 1.5 5.82843017578125 2.17156982421875 6.5 3 6.5 L 5 6.5 Z" stroke="none" fill="#838383"/>
    </g>
  </g>
</svg>
