<svg xmlns="http://www.w3.org/2000/svg" width="106" height="106" viewBox="0 0 106 106">
  <g id="Group_1" data-name="Group 1" transform="translate(-223 -165)">
    <rect id="Rectangle_3" data-name="Rectangle 3" width="106" height="106" rx="15" transform="translate(223 165)" fill="#ff1d1d"/>
    <path id="Icon_awesome-youtube" data-name="Icon awesome-youtube" d="M63.407,11.507a8,8,0,0,0-5.631-5.667C52.809,4.5,32.894,4.5,32.894,4.5S12.978,4.5,8.011,5.839a8,8,0,0,0-5.631,5.667c-1.331,5-1.331,15.429-1.331,15.429s0,10.43,1.331,15.429a7.883,7.883,0,0,0,5.631,5.577c4.967,1.339,24.882,1.339,24.882,1.339s19.916,0,24.882-1.339a7.883,7.883,0,0,0,5.631-5.577c1.331-5,1.331-15.429,1.331-15.429s0-10.43-1.331-15.429ZM26.38,36.4V17.466l16.646,9.47L26.38,36.4Z" transform="translate(243.106 191.11)" fill="#fff"/>
  </g>
</svg>
