<svg xmlns="http://www.w3.org/2000/svg" xmlns:xlink="http://www.w3.org/1999/xlink" width="60" height="60" viewBox="0 0 60 60">
  <defs>
    <filter id="Union_1" x="5" y="8" width="50.781" height="50.069" filterUnits="userSpaceOnUse">
      <feOffset dy="3" input="SourceAlpha"/>
      <feGaussianBlur stdDeviation="3" result="blur"/>
      <feFlood flood-opacity="0.039"/>
      <feComposite operator="in" in2="blur"/>
      <feComposite in="SourceGraphic"/>
    </filter>
  </defs>
  <g id="Group_1662" data-name="Group 1662" transform="translate(-327 -314)">
    <rect id="Rectangle_10" data-name="Rectangle 10" width="60" height="60" rx="16" transform="translate(327 314)" fill="#6b9dfb"/>
    <g transform="matrix(1, 0, 0, 1, 327, 314)" filter="url(#Union_1)">
      <path id="Union_1-2" data-name="Union 1" d="M-1011.931,526.069A1.069,1.069,0,0,1-1013,525V503.621a1.069,1.069,0,0,1,1.069-1.069h4.276a1.069,1.069,0,0,1,1.069,1.069V525a1.069,1.069,0,0,1-1.069,1.069Zm1.069-5.345a1.07,1.07,0,0,0,1.069,1.069,1.07,1.07,0,0,0,1.07-1.069,1.07,1.07,0,0,0-1.07-1.069A1.07,1.07,0,0,0-1010.862,520.724Zm7.483,3.207a1.069,1.069,0,0,1-1.069-1.069V505.779a1.07,1.07,0,0,1,.66-.988l2.668-1.1a7.05,7.05,0,0,0,4.261-6.481A3.21,3.21,0,0,1-993.652,494a3.21,3.21,0,0,1,3.207,3.207,18.808,18.808,0,0,1-1.167,7.483h8.186a3.21,3.21,0,0,1,3.207,3.207,3.213,3.213,0,0,1-2.363,3.095,3.185,3.185,0,0,1,.225,1.181,3.212,3.212,0,0,1-2.363,3.094,3.192,3.192,0,0,1,.225,1.182,3.212,3.212,0,0,1-2.363,3.094,3.193,3.193,0,0,1,.225,1.182,3.211,3.211,0,0,1-3.206,3.207Z" transform="translate(1027 -480)" fill="#fff"/>
    </g>
  </g>
</svg>
