<svg xmlns="http://www.w3.org/2000/svg" width="54.89" height="55.172" viewBox="0 0 54.89 55.172">
  <g id="starbucks_1_" data-name="starbucks (1)" transform="translate(-275.992 -555.002)">
    <path id="Path_12044" data-name="Path 12044" d="M330.882,582.588A27.445,27.445,0,1,1,303.437,555,27.516,27.516,0,0,1,330.882,582.588Z" transform="translate(0 0)" fill="#fff"/>
    <path id="Path_12045" data-name="Path 12045" d="M304.283,566.011a14.443,14.443,0,0,1,2.771,2.033l-.306.308a38.056,38.056,0,0,0-4.621.063c-.163-.164-.49-.411-.185-.617ZM331.5,585.135a4.722,4.722,0,0,1-.185,2c-2.812.8-4.66-2.178-7.389-1.729l.309,1.544c2.525.083,4.1,2.5,6.71,2.4-.371.74.165,2.69-1.476,1.91-1.7-.41-2.936-1.91-4.8-1.91-.225.413-.082.986-.122,1.476,1.97.309,3.387,1.974,5.356,2.281a3.249,3.249,0,0,1-.924,1.847c-1.6-.39-2.854-1.829-4.559-1.788l-.3,1.417c1.621.042,2.668,1.476,4.125,1.906.04.6-.494,1.132-.8,1.666-1.293-.388-2.279-1.5-3.757-1.417-.02-.557.31-1.189.185-1.784-1.66.494-2.772-1.048-4-1.974-.035-3.027-3.222-5.013-3.39-7.848a4.208,4.208,0,0,1,.311-1.818,9.708,9.708,0,0,0-.43-7.823,4.434,4.434,0,0,0-1.543-1.413c.843,1.787,1.87,3.9,1.357,6.094-.059,1.7-1.06,3.325-1.072,4.959a3.409,3.409,0,0,0,.456,1.755c1.335,2.4,3.737,4.681,2.834,7.7-.248.926-.988,1.642-1.172,2.585,1.562,1.294,3.039,2.751,5.111,2.833.738-.472.328-2.563,1.847-1.6l2.218,1.11a3.556,3.556,0,0,1-1.109,1.535,5.583,5.583,0,0,0-2.712-.861,1.606,1.606,0,0,0-.552,1.168,4.943,4.943,0,0,1,2.033.865,5.118,5.118,0,0,1-1.358,1.476l-1.72-.615c-.287.411-.884.843-.675,1.294a3.579,3.579,0,0,1,1.1.679,11.442,11.442,0,0,1-2.648,1.906c-.8-2.608-3.427-4.436-3.2-7.452l-.122-.122c-.618.695-.411,1.806-.372,2.707.74,1.889,2.5,3.348,2.771,5.419-.309.533-1.005.64-1.54.865.062-3.734-5.6-6.567-1.97-10.345,1.212-1.85,3.242-3.615,2.522-6.162-.738-2.459-3.351-3.983-3.327-6.739l0-.215c.595-2.874,2.4-5.933.924-8.991a5.207,5.207,0,0,0-2.585-3.142,8.8,8.8,0,0,1,1.539,8.5,11.1,11.1,0,0,0-1.354,3.851h0a3.215,3.215,0,0,0,.557,2.062c1.417,2.3,3.879,4.826,2.463,7.823-1.6,2.4-4.392,4.843-2.833,8,1.129,1.888,2.875,3.773,2.4,6.094l-1.847.615c1.232-4.33-4.8-6.874-2.277-11.206,1.56-2.319,4.35-4.5,2.77-7.574-.944-1.907-2.895-3.036-2.834-5.42l.067-.4c.636-3.38,3.206-6.581,1.408-10.193a6.418,6.418,0,0,0-2.463-2.771l-.063.063a7.465,7.465,0,0,1,1.6,8.064c-.527,1.577-1.683,3.148-1.918,4.837a3.973,3.973,0,0,0,.443,2.492c1.334,2.113,3.674,4.354,2.214,7.085-1.537,2.256-4.1,4.451-3.079,7.385,1.129,2.567,3.487,5.012,2.214,8.194l-1.906.43c1.518-3.1-.758-6.179-2.092-8.869-1.622-3.859,3.486-5.707,3.568-9.236-.019-2.278-2.441-3.571-2.952-5.664-1.048-.884-2.134.351-3.387.122-.925.186-2.345-1.273-2.9.308-.657,2.318-3.653,4.023-2.336,6.773,1.253,2.444,4.267,4.23,3.26,7.393-.9,2.954-3.88,5.766-2.033,9.173-.759-.246-2.176.225-2.155-.987-1.17-4.125,3.818-6.529,2.277-10.653-.717-2.526-3.983-3.921-3.264-6.959.532-2.5,3.338-4.249,2.944-6.988a4.062,4.062,0,0,0-.169-.709c-1.047-2.956-3.184-5.913-1.911-9.362a12.077,12.077,0,0,1,1.662-2.707,6.224,6.224,0,0,0-3.015,5.727c-.089,2.544,1.791,4.724,2.058,7.052a4.3,4.3,0,0,1-.7,2.922c-1.333,1.809-3.077,3.716-2.277,6.1.76,2.4,3.757,3.858,3.572,6.651-.021,3.3-3.859,5.36-2.771,9.055l-1.911-.62c-.759-3.283,2.73-4.963,2.77-8,.494-3.493-3.961-4.789-3.694-8.194-.019-2.587,2.258-4.226,3.264-6.4a4.172,4.172,0,0,0,.207-1.51c-.123-2.406-2.291-4.287-1.932-6.993a8.562,8.562,0,0,1,2.092-5.234c-1.785.717-2.522,2.771-3.015,4.5-.856,2.765,1.187,5.253,1.391,7.73a4.092,4.092,0,0,1-1.206,3.294c-1.479,1.742-2.978,3.941-1.911,6.283,1.131,2.584,4.682,4.6,3.142,7.819-.84,2.033-2.853,3.571-2.77,5.972a5.234,5.234,0,0,1-1.54-.861c0-3.058,4.35-4.968,2.277-8.19-.184.636-.223,1.5-.367,2.218-.719,1.869-2.258,3.365-2.834,5.3a8.465,8.465,0,0,1-2.771-1.974l1.11-.679a3.491,3.491,0,0,0-.738-1.109c-.72-.1-1.193.372-1.788.557a9.235,9.235,0,0,1-1.417-1.417c.368-1.049,3.246-.182,1.788-1.906-.984-.615-1.972.264-2.834.674l-1.168-1.476c1.006-.615,2.009-1.479,3.26-1.231.308.555.33,1.372.924,1.661,2.115-.041,3.613-1.64,5.234-2.893-1.13-1.681-2.049-4-1.046-6.035.8-2.037,2.9-3.753,2.994-6.005a4,4,0,0,0-.283-1.632c-1.108-2.854-1.5-6.71.616-9.236-1.15.309-1.828,1.742-2.218,2.83-1.271,2.786.337,5.368.392,8.038a5.756,5.756,0,0,1-.148,1.447c-1.088,2.2-2.852,4.123-3.138,6.65-1.253.8-2.281,2.2-4.066,1.725a4.732,4.732,0,0,0,.245,1.725c-1.415-.06-2.38.984-3.572,1.476-.635-.2-.8-1.024-1.046-1.6,1.395-.471,2.4-1.869,4-1.847.186-.516-.1-.988-.186-1.48-1.992-.884-5.15,4.371-5.415-.185,1.991-.123,3.263-1.971,5.234-2.155l.059-1.476c-2.237-.226-3.677,2.074-5.913,1.847l-.493-1.97c2.587.162,4.128-2.157,6.592-2.281a3.356,3.356,0,0,0,.43-1.661c-2.689-.351-4.534,2.63-7.389,1.725,0,0-.1-1.24-.152-1.94h0q-.016-.232-.038-.464c2.545.987,4.781-.841,6.959-1.784.554-.166,1.417.122,1.665-.494-.021-.472.84-1.024.123-1.354-3.183-.432-5.3,3.407-8.562,1.662l-.245-.494c.678-9.277,5.91-18.246,14.592-22.659a27.07,27.07,0,0,1,26.975,1.109,26.786,26.786,0,0,1,12.686,21.859c-3.367,2.544-5.626-2.4-9.055-1.291a4.265,4.265,0,0,0,.679,1.539c3.039-.022,5.131,3.16,8.312,1.906l0,.464Zm-38.678-11.425c-2.135-1.4-4.842-.081-6.832.679a6.687,6.687,0,0,0-2.526-4.8,1.683,1.683,0,0,0-.557-.249.317.317,0,0,0-.308.185c.717,4.413-2.151,7.492-4.184,10.839a3.24,3.24,0,0,0,2.585.308c2.155-.862,4.207-2.362,6.773-1.848a19.022,19.022,0,0,1,3.079-3.572C291.5,574.7,292.372,574.345,292.826,573.709Zm6.529,2.771c-.041.266.02.74.43.556.637-.883,1.766-.184,2.463-.122v-.248a2.211,2.211,0,0,0-1.97-.873,2.911,2.911,0,0,0-.552.075A.479.479,0,0,0,299.354,576.48Zm10.037-2.644a4.251,4.251,0,0,0-3.079-2.1,16.077,16.077,0,0,0-1.793-.126c-.113,0-.225,0-.338,0a5.044,5.044,0,0,0-4.272,1.851c-.141.391-.761.94-.185,1.291,1.293-.083,2.769-.245,3.631.865,0,.986.637,2.3-.43,2.771-.884-.819-1.931.349-2.893-.308-.452-.267-.738.044-.924.435a7.233,7.233,0,0,0,3.446,6.769,4.4,4.4,0,0,0,3.269.185c2.422-1.128,3.425-3.713,3.876-6.094-.06-.453-.039-1.336-.675-1.358a3.441,3.441,0,0,1-2.526,0c-.45.145-.471.8-.983.928l-.312-.249c-.267-1.127-.432-2.729.616-3.509a5.775,5.775,0,0,1,3.757-.308C309.8,574.492,309.455,574.185,309.392,573.836Zm-1.236,2.024-.241.009c-.43.287-1.683.081-1.231,1.046.78-.617,1.868-.185,2.648.122.288-.143.226-.43.245-.678C309.327,575.892,308.728,575.849,308.156,575.86Zm8.937-8.679c-1.519-.081-2.792.782-4.188,1.172-.121-1.188.781-2.443.987-3.635-2.257.145-4.045,1.5-5.913,2.589q-.65-1.569-1.294-3.142l2.463-2.341.063-.308-3.327-.185a31.2,31.2,0,0,0-1.476-3.137c-.554,1.047-.927,2.155-1.48,3.2l-3.323.186v.245l2.522,2.277a8.284,8.284,0,0,1-1.354,3.327,29.312,29.312,0,0,0-4.555-2.463c-.39-.126-.946-.33-1.295-.063.512,1.129,1.23,2.344,1.109,3.577a19.118,19.118,0,0,1-1.847-.742,4.5,4.5,0,0,0-2.4-.367,13.534,13.534,0,0,1,2.585,5.6,22.863,22.863,0,0,1,13.8-2.214,33.776,33.776,0,0,1,6.525,2.092C314.771,570.675,316.146,568.927,317.093,567.181Zm7.018,11.825c2.092.554,4.191,2.833,6.406,1.354-1.93-3.2-4.8-6.158-4-10.345a.482.482,0,0,0-.367-.616,5.406,5.406,0,0,0-2.716,2.957,18.33,18.33,0,0,1-.611,2.155,8.758,8.758,0,0,0-4.926-1.354c-.659.082-1.6.125-1.725.8a14.314,14.314,0,0,1,5.048,4.926A9.864,9.864,0,0,1,324.111,579.006ZM302.188,581.9l.059.371c.8.534,1.049,1.44,2.159,1.358.985.058,1.723-.864,2.214-1.6C305.289,581.842,303.667,582.126,302.188,581.9Zm1.109-1.662c.04.164-.1.411.122.494.657-.143,1.847.349,2.214-.431a1.476,1.476,0,0,0-1.113-.417A2.224,2.224,0,0,0,303.3,580.238Z" transform="translate(-1.075 -1.202)" fill="#106e33"/>
    <path id="Path_12046" data-name="Path 12046" d="M412.145,681.392h4.5v1.849h-4.5Z" transform="translate(-111.03 -103.068)" fill="#fff" opacity="0.99"/>
    <path id="Path_12047" data-name="Path 12047" d="M416.279,684.463c.582.138.725.344,1.185.4.489-.009.418-.108,1.27-.4a.148.148,0,0,0,.038-.238c-.529-.525-.9-.15-1.227-.14-.44,0-.853-.377-1.283.119-.073.1-.111.2.016.259Z" transform="translate(-114.333 -105.151)" fill="#106e33"/>
    <g id="Group_1665" data-name="Group 1665" transform="translate(322.269 606.482)">
      <path id="Path_12048" data-name="Path 12048" d="M527.73,837.164V834.53h-.941v-.536h2.519v.536h-.938v2.634Zm1.985,0v-3.17h.958l.575,2.162.569-2.162h.96v3.17h-.595v-2.5l-.629,2.5h-.616l-.627-2.5v2.5Z" transform="translate(-526.789 -833.994)" fill="#106e33"/>
    </g>
  </g>
</svg>
