<svg xmlns="http://www.w3.org/2000/svg" width="106" height="106" viewBox="0 0 106 106">
  <g id="Group_1660" data-name="Group 1660" transform="translate(-24 -105)">
    <rect id="Rectangle_3" data-name="Rectangle 3" width="106" height="106" rx="15" transform="translate(24 105)" fill="#ff451d"/>
    <g id="reddit-logo-black-lineal-14143" transform="translate(40.563 127.219)">
      <path id="Path_1" data-name="Path 1" d="M37.51,78.849c-18.07,0-32.777-10.448-32.818-23.3q-.047-.725-.038-1.455a9.541,9.541,0,0,1-1.549-1.182A9.435,9.435,0,0,1,9.258,36.6a9.356,9.356,0,0,1,5.754,1.731A39.845,39.845,0,0,1,34.46,32.173l3.668-17.24c.006-.045.013-.089.022-.129a3.279,3.279,0,0,1,3.919-2.5L55.149,14.92a1.62,1.62,0,0,1-.634,3.177L41.327,15.463l-.01.052L37.763,32.222c6.845.482,15.85,2.705,21.928,6.429a9.373,9.373,0,1,1,10.674,15.4c.007.5-.006,1-.038,1.5C70.284,68.4,55.58,78.849,37.51,78.849ZM9.561,39.836c-.067,0-.134,0-.2,0a6.192,6.192,0,0,0-4.041,10.7,5.949,5.949,0,0,0,1.648,1.111,1.622,1.622,0,0,1,.962,1.592,15.834,15.834,0,0,0,0,2.135c0,.036,0,.074,0,.11,0,11.093,13.268,20.118,29.578,20.118s29.578-9.025,29.578-20.118c0-.037,0-.074,0-.111a15.825,15.825,0,0,0,0-2.134,1.622,1.622,0,0,1,.892-1.56,6.129,6.129,0,1,0-7.057-9.858,1.619,1.619,0,0,1-2.029.166c-6.02-4.1-16.4-6.471-23.121-6.623a36.641,36.641,0,0,0-19.961,6.307,1.621,1.621,0,0,1-2.018-.161A6.158,6.158,0,0,0,9.561,39.836Zm26.967,31.21a22.273,22.273,0,0,1-13.349-4.468,1.62,1.62,0,0,1,1.947-2.59,18.971,18.971,0,0,0,12.183,3.8c.045,0,.09,0,.136,0a19.084,19.084,0,0,0,12.184-3.8,1.62,1.62,0,0,1,2.594,1.3V65.5a1.622,1.622,0,0,1-1.366,1.6,22.348,22.348,0,0,1-13.479,3.934C37.094,71.04,36.81,71.046,36.528,71.046Z" transform="translate(-0.124 -10.694)" fill="#fff"/>
      <path id="Path_2" data-name="Path 2" d="M65.9,132.248a5.362,5.362,0,1,1,5.362,5.362A5.372,5.372,0,0,1,65.9,132.248Z" transform="translate(-46.518 -91.562)" fill="#fff"/>
      <path id="Path_3" data-name="Path 3" d="M155.549,138.439h-.267l.041-.2a3.792,3.792,0,1,1,.226.2Z" transform="translate(-105.804 -92.006)" fill="#fff"/>
      <path id="Path_4" data-name="Path 4" d="M187.616,20.52a6.747,6.747,0,1,1,6.747-6.747A6.755,6.755,0,0,1,187.616,20.52Zm0-10.254a3.507,3.507,0,1,0,3.507,3.507A3.511,3.511,0,0,0,187.616,10.266Z" transform="translate(-127.603 -7.025)" fill="#fff"/>
    </g>
  </g>
</svg>
