<svg xmlns="http://www.w3.org/2000/svg" xmlns:xlink="http://www.w3.org/1999/xlink" width="60" height="60" viewBox="0 0 60 60">
  <defs>
    <filter id="Icon_awesome-youtube" x="4" y="12" width="52.902" height="42.541" filterUnits="userSpaceOnUse">
      <feOffset dy="3" input="SourceAlpha"/>
      <feGaussianBlur stdDeviation="3" result="blur"/>
      <feFlood flood-opacity="0.039"/>
      <feComposite operator="in" in2="blur"/>
      <feComposite in="SourceGraphic"/>
    </filter>
  </defs>
  <g id="Group_1661" data-name="Group 1661" transform="translate(-54 -314)">
    <rect id="Rectangle_3" data-name="Rectangle 3" width="60" height="60" rx="16" transform="translate(54 314)" fill="#ff451d"/>
    <g transform="matrix(1, 0, 0, 1, 54, 314)" filter="url(#Icon_awesome-youtube)">
      <path id="Icon_awesome-youtube-2" data-name="Icon awesome-youtube" d="M35.223,8.34a4.386,4.386,0,0,0-3.086-3.106C29.415,4.5,18.5,4.5,18.5,4.5s-10.914,0-13.636.734A4.386,4.386,0,0,0,1.779,8.34,46.006,46.006,0,0,0,1.05,16.8a46.006,46.006,0,0,0,.729,8.455,4.32,4.32,0,0,0,3.086,3.056c2.722.734,13.636.734,13.636.734s10.914,0,13.636-.734a4.32,4.32,0,0,0,3.086-3.056,46.005,46.005,0,0,0,.729-8.455,46.005,46.005,0,0,0-.729-8.455ZM14.932,21.985V11.606l9.122,5.19-9.122,5.189Z" transform="translate(11.95 13.5)" fill="#fff"/>
    </g>
  </g>
</svg>
